<svg width="333" height="124" viewBox="0 0 333 124" fill="none" xmlns="http://www.w3.org/2000/svg">
<path d="M311.744 35.8313H308.879C308.879 28.7542 303.13 23.0024 296.07 23.0024V20.1328C304.716 20.1328 311.744 27.1787 311.744 35.8313Z" fill="#5F5F5F"/>
<path d="M296.07 10.0664V12.936C308.673 12.936 318.929 23.2079 318.929 35.8304H321.794C321.794 21.6261 310.252 10.0664 296.07 10.0664Z" fill="#5F5F5F"/>
<path d="M296.07 0V2.86961C314.216 2.86961 328.985 17.6553 328.985 35.8358H331.85C331.85 16.0736 315.795 0 296.07 0Z" fill="#5F5F5F"/>
<path d="M99.4863 37.167C100.955 34.9513 103.001 33.6448 105.626 33.8633C108.682 34.1193 110.692 35.9361 111.699 38.8486L111.7 38.8506C112.039 39.8204 112.28 40.8561 112.339 41.8613L112.353 42.2891C112.402 53.6658 112.384 65.0486 112.378 76.4277V76.4287C112.378 76.4888 112.374 76.5501 112.369 76.6221H109.089V75.6719C109.089 64.8073 109.108 53.9454 109.058 43.0781C109.051 41.8342 108.831 40.467 108.309 39.3057L108.308 39.3037C107.721 38.014 106.713 37.244 105.566 37.1357C104.426 37.0281 103.273 37.5867 102.408 38.6973L102.407 38.6982C101.893 39.3619 101.504 40.1477 101.218 40.9092C97.1478 51.6566 93.097 62.4105 89.0459 73.1699H89.0449L89.0439 73.1748C88.9787 73.3531 88.9078 73.5223 88.8301 73.7168C88.2099 75.2604 87.2258 75.9873 86.0791 75.9473C85.3712 75.9225 84.8206 75.7112 84.3848 75.3652C83.9438 75.0151 83.5905 74.5036 83.3232 73.8359H83.3242C82.5291 71.8418 81.7203 69.8678 80.9473 67.876C77.3023 58.4929 73.6682 49.1015 70.0166 39.7236H70.0176C69.665 38.816 69.2077 38.1229 68.5781 37.6992C68.0158 37.3209 67.37 37.1933 66.6572 37.2539L66.3477 37.291C64.8425 37.5225 63.5069 38.9881 63.2998 40.6143C63.2013 41.3574 63.1963 42.1132 63.1963 42.8242C63.19 53.8088 63.1895 64.7871 63.1895 75.7715V76.8535H59.8516V42.4121C59.8516 40.2746 60.2057 38.3185 61.5098 36.6699H61.5107C64.8945 32.3871 71.0201 33.2671 73.0186 38.3496C74.5133 42.1469 75.9953 45.9506 77.4736 49.7559L81.9062 61.1738L85.0156 69.1523C85.1608 69.5284 85.3506 69.9033 85.627 70.499L86.1348 71.5957L86.5498 70.4609C86.8876 69.5369 87.1978 68.6804 87.4971 67.8584L88.3779 65.4619C91.3996 57.3268 94.4013 49.1892 97.4717 41.0762C97.9882 39.7128 98.6815 38.3823 99.4863 37.167Z" fill="#5F5F5F" stroke="#5F5F5F"/>
<path d="M182.622 33.9971C195.612 33.9908 208.602 33.9779 221.591 34.0029C227.565 34.0151 232.187 37.5609 233.763 43.2334V43.2344C235.427 49.2059 233.182 55.5412 228.383 58.498H228.382C227.315 59.1599 226.149 59.5758 224.8 60.209L224.277 60.4541L224.595 60.9355C227.876 65.9316 231.174 70.9515 234.514 76.0352C233.62 76.6276 232.745 77.2077 231.802 77.8311C231.619 77.5717 231.45 77.3303 231.286 77.0801L231.285 77.0791C227.883 71.9026 224.481 66.7263 221.086 61.5439L221.085 61.543C220.883 61.236 220.649 60.9265 220.322 60.7012C219.981 60.4663 219.579 60.3486 219.082 60.3486H219.081C208.352 60.3799 197.629 60.3678 186.904 60.374C186.575 60.374 186.218 60.4154 185.819 60.4443L185.355 60.4775V76.6289H182.148V34.0234C182.307 34.0079 182.461 33.9971 182.622 33.9971ZM220.891 37.2793C215.251 37.3012 209.611 37.3029 203.971 37.2998L187.048 37.292C186.646 37.292 186.237 37.332 185.862 37.3555L185.394 37.3848V56.877L185.865 56.9033C186.284 56.9263 186.675 56.9668 187.041 56.9668C195.799 56.9715 204.56 56.9902 213.323 56.9756L222.087 56.9473C225.757 56.9339 228.41 55.0291 229.976 51.7891V51.7881C231.32 49.0036 231.389 45.3871 229.953 42.4561C228.546 39.5845 225.711 37.4028 221.32 37.2842L220.891 37.2793Z" fill="#5F5F5F" stroke="#5F5F5F"/>
<path d="M46.1445 34.0098H46.5557V37.292H45.6074C40.2861 37.292 34.9629 37.291 29.6396 37.291L13.6719 37.2988C11.6481 37.2989 9.65597 37.6527 7.82812 38.7168C2.60859 41.7537 2.37762 48.9972 7.36914 52.3789V52.3799C9.54748 53.8541 11.992 54.2158 14.4443 54.2285H14.4453C22.8363 54.2598 31.2092 54.1967 39.583 54.3154C44.9478 54.3935 49.5859 58.2991 50.6611 63.3545C52.0146 69.7072 48.2207 75.5774 41.8789 76.8896C40.719 77.1317 39.5295 77.3011 38.3545 77.3438L37.8525 77.3545C26.8553 77.392 15.8524 77.373 4.84668 77.373C4.74538 77.373 4.65021 77.3656 4.54102 77.3604V74.0654H5.61426C16.418 74.0654 27.2246 74.0846 38.0303 74.0596C40.5139 74.0532 42.9762 73.5596 45.001 71.7852V71.7842C47.3585 69.7162 48.0981 67.0441 47.4443 64.0742C46.7139 60.7597 44.4793 58.838 41.4316 57.9541L41.1348 57.8711C40.1264 57.6036 39.0547 57.5605 38.0605 57.5605H38.0615C30.2265 57.5418 22.4162 57.5733 14.5859 57.542H14.5869C12.1162 57.5297 9.72072 57.2159 7.47949 56.2109C2.85989 54.1379 0.20403 49.6292 0.526367 44.9102V44.9092C0.849078 40.1282 4.17375 35.759 9.60156 34.5029L9.60254 34.5039C10.8755 34.2111 12.1995 34.0412 13.4941 34.0352L13.4932 34.0342C24.3782 33.9967 35.2575 34.0098 46.1445 34.0098Z" fill="#5F5F5F" stroke="#5F5F5F"/>
<path d="M137.651 34.3164C144.198 33.9171 150.813 33.8054 157.315 34.3652C165.952 35.1114 172.221 42.3167 172.227 50.5664C172.233 59.0811 172.233 67.596 172.227 76.1045V76.6553H168.944V56.6992H125.966V76.9053H122.722V50.6787C122.728 42.452 129.47 34.8119 137.651 34.3164ZM156.432 37.5752C150.479 37.3122 144.481 37.2363 138.522 37.5752C133.168 37.8811 129.292 40.9363 127.055 45.792C126.026 48.024 125.838 50.3988 126.126 52.8252L126.178 53.2666H126.622C140.542 53.2666 154.356 53.266 168.463 53.2598H169.003L168.962 52.7217C168.897 51.8665 168.879 51.0639 168.834 50.2314C168.79 49.4146 168.72 48.5987 168.546 47.7969V47.7959C167.331 42.2282 162.332 37.8356 156.432 37.5752Z" fill="#5F5F5F" stroke="#5F5F5F"/>
<path d="M293.022 33.9727V37.1797H271.2V76.8105H267.961C267.961 63.8245 267.961 50.8778 267.955 37.7178V37.2178H246.07V33.9727H293.022Z" fill="#5F5F5F" stroke="#5F5F5F"/>
<path d="M52.4887 92.9453C44.1805 92.9453 37.4453 99.6911 37.4453 108.012C37.4453 116.334 44.1805 123.079 52.4887 123.079C60.797 123.079 67.5322 116.334 67.5322 108.012C67.5322 99.6911 60.797 92.9453 52.4887 92.9453ZM59.0679 102.473C59.0679 102.886 58.7371 103.186 58.3563 103.186H50.0419C49.6299 103.186 49.3053 103.517 49.3053 103.924V105.593C49.3053 106.006 49.6361 106.306 50.0419 106.306H55.1042C55.485 106.306 55.8158 106.637 55.8158 107.043V108.988C55.8158 109.4 55.485 109.7 55.1042 109.7H50.0419C49.6299 109.7 49.3053 110.032 49.3053 110.438V112.107C49.3053 112.489 49.6361 112.82 50.0419 112.82H58.3563C58.7371 112.82 59.0679 113.151 59.0679 113.558V115.502C59.0679 115.883 58.7371 116.215 58.3563 116.215H49.9045C49.4926 116.215 49.168 115.883 49.168 115.502V113.695C49.168 113.283 48.8683 112.958 48.4564 112.958H46.6524C46.2404 112.958 45.9158 112.626 45.9158 112.245V110.301C45.9158 109.888 46.2467 109.563 46.6524 109.563H48.4564C48.8683 109.563 49.168 109.263 49.168 108.85V107.181C49.168 106.768 48.8683 106.443 48.4564 106.443H46.6524C46.2404 106.443 45.9158 106.143 45.9158 105.73V103.786C45.9158 103.373 46.2467 103.073 46.6524 103.073H48.4564C48.8683 103.073 49.168 102.742 49.168 102.336V100.529C49.168 100.116 49.4988 99.8161 49.9045 99.8161H58.3563C58.7371 99.8161 59.0679 100.116 59.0679 100.529V102.473Z" fill="#2CDD9D"/>
<path d="M86.9185 92.9453C78.6102 92.9453 71.875 99.6911 71.875 108.012C71.875 116.334 78.6102 123.079 86.9185 123.079C95.2267 123.079 101.962 116.334 101.962 108.012C101.962 99.6911 95.2267 92.9453 86.9185 92.9453ZM95.1143 115.521C95.1143 115.902 94.7835 116.234 94.3777 116.234H92.4365C92.0557 116.234 91.7249 115.902 91.7249 115.521V103.949C91.7249 103.536 91.394 103.211 90.9883 103.211H89.3216C88.9409 103.211 88.6101 103.542 88.6101 103.949V112.264C88.6101 112.645 88.2792 112.976 87.8735 112.976H85.9322C85.5514 112.976 85.2206 112.645 85.2206 112.264V103.949C85.2206 103.536 84.8898 103.211 84.484 103.211H82.8174C82.4366 103.211 82.1058 103.542 82.1058 103.949V115.521C82.1058 115.902 81.775 116.234 81.3692 116.234H79.4279C79.0472 116.234 78.7163 115.902 78.7163 115.521V103.811C78.7163 103.398 79.0472 103.073 79.4279 103.073H81.2319C81.6439 103.073 81.9685 102.742 81.9685 102.361V100.554C81.9685 100.141 82.2931 99.8161 82.6801 99.8161H84.6213C85.0333 99.8161 85.3579 100.147 85.3579 100.554V102.361C85.3579 102.742 85.6888 103.073 86.0695 103.073H87.7362C88.1481 103.073 88.4727 102.742 88.4727 102.361V100.554C88.4727 100.141 88.8036 99.8161 89.1843 99.8161H91.1256C91.5376 99.8161 91.8622 100.147 91.8622 100.554V102.361C91.8622 102.742 92.1618 103.073 92.5738 103.073H94.3777C94.7897 103.073 95.1143 103.405 95.1143 103.811V115.521Z" fill="#E5BA9C"/>
<path d="M125.243 103.905V112.082C125.243 112.495 124.919 112.82 124.507 112.82H119.588C119.207 112.82 118.876 112.495 118.876 112.082V103.905C118.876 103.524 119.207 103.192 119.588 103.192H124.507C124.919 103.192 125.243 103.524 125.243 103.905ZM136.392 108.012C136.392 116.334 129.656 123.079 121.348 123.079C113.04 123.079 106.305 116.334 106.305 108.012C106.305 99.6911 113.04 92.9453 121.348 92.9453C129.656 92.9453 136.392 99.6911 136.392 108.012ZM128.633 103.767C128.633 103.386 128.302 103.055 127.896 103.055H126.092C125.711 103.055 125.381 102.723 125.381 102.342V100.51C125.381 100.129 125.05 99.7974 124.644 99.7974H116.205C115.824 99.7974 115.493 100.129 115.493 100.51V115.471C115.493 115.883 115.824 116.209 116.205 116.209H124.644C125.056 116.209 125.381 115.877 125.381 115.471V113.664C125.381 113.283 125.711 112.951 126.092 112.951H127.896C128.308 112.951 128.633 112.62 128.633 112.214V103.767Z" fill="#30C9F2"/>
<path d="M159.664 103.936V108.863C159.664 109.244 159.339 109.575 158.952 109.575H154.033C153.621 109.575 153.297 109.244 153.297 108.863V103.936C153.297 103.524 153.627 103.198 154.033 103.198H158.952C159.339 103.192 159.664 103.524 159.664 103.936ZM170.806 108.012C170.806 116.334 164.07 123.079 155.762 123.079C147.454 123.079 140.719 116.334 140.719 108.012C140.719 99.6911 147.454 92.9453 155.762 92.9453C164.07 92.9453 170.806 99.6911 170.806 108.012ZM163.053 103.799C163.053 103.386 162.722 103.061 162.341 103.061H160.537C160.125 103.061 159.801 102.73 159.801 102.348V100.541C159.801 100.129 159.47 99.8036 159.089 99.8036H150.65C150.238 99.8036 149.913 100.135 149.913 100.541V115.502C149.913 115.883 150.244 116.215 150.65 116.215H152.591C152.972 116.215 153.303 115.883 153.303 115.502V113.67C153.303 113.289 153.634 112.958 154.039 112.958H159.089C159.47 112.958 159.801 112.626 159.801 112.245V110.438C159.801 110.025 160.132 109.7 160.537 109.7H162.341C162.722 109.7 163.053 109.369 163.053 108.988V103.799Z" fill="#F97885"/>
<path d="M202.789 109.37C203.163 109.195 203.526 109.063 203.85 108.863C205.317 107.963 205.985 106.044 205.486 104.243C205.005 102.524 203.6 101.442 201.79 101.442C197.995 101.436 194.206 101.436 190.411 101.442C190.311 101.442 190.211 101.455 190.124 101.461C190.124 105.718 190.124 109.945 190.124 114.177C190.53 114.177 190.91 114.177 191.353 114.177C191.353 112.589 191.353 111.026 191.353 109.451C191.478 109.445 191.572 109.432 191.659 109.432C194.793 109.432 197.92 109.432 201.054 109.426C201.297 109.426 201.403 109.538 201.516 109.707C202.508 111.22 203.501 112.733 204.493 114.24C204.568 114.352 204.643 114.459 204.73 114.577C205.092 114.334 205.423 114.121 205.76 113.896C204.761 112.377 203.775 110.87 202.789 109.37ZM191.703 108.15C191.603 108.15 191.497 108.138 191.366 108.132C191.366 106.312 191.366 104.537 191.366 102.718C191.485 102.711 191.591 102.699 191.703 102.699C194.999 102.699 198.288 102.705 201.584 102.693C204.181 102.68 204.855 105.168 204.106 106.719C203.669 107.619 202.945 108.138 201.934 108.144C198.519 108.157 195.111 108.15 191.703 108.15ZM223.538 106.425C223.538 103.943 221.653 101.774 219.05 101.548C217.14 101.386 215.204 101.417 213.288 101.536C210.816 101.686 208.794 103.987 208.794 106.456C208.794 108.932 208.794 111.408 208.794 113.877C208.794 114.002 208.794 114.127 208.794 114.259C209.225 114.259 209.618 114.259 210.036 114.259C210.036 112.289 210.036 110.345 210.036 108.357C214.143 108.357 218.194 108.357 222.289 108.357C222.289 110.314 222.289 112.245 222.289 114.184C222.732 114.184 223.126 114.184 223.538 114.184C223.538 114.058 223.538 113.971 223.538 113.877C223.538 111.395 223.538 108.907 223.538 106.425ZM210.073 107.069C209.992 106.381 210.049 105.712 210.329 105.093C210.966 103.718 212.052 102.868 213.55 102.78C215.286 102.68 217.027 102.705 218.763 102.78C220.417 102.855 221.821 104.087 222.164 105.65C222.264 106.094 222.246 106.562 222.283 107.069C218.17 107.069 214.137 107.069 210.073 107.069ZM179.493 114.234C179.912 114.234 180.305 114.234 180.729 114.234C180.729 110.376 180.729 106.537 180.729 102.661C182.877 102.661 184.98 102.661 187.103 102.661C187.103 102.23 187.103 101.842 187.103 101.43C182.427 101.43 177.764 101.43 173.102 101.43C173.102 101.849 173.102 102.242 173.102 102.668C175.224 102.668 177.334 102.668 179.493 102.668C179.493 106.562 179.493 110.395 179.493 114.234ZM239.811 114.234H232.002C228.481 114.234 225.616 111.364 225.616 107.838C225.616 104.312 228.481 101.436 232.002 101.436H239.811V102.68H232.002C229.162 102.68 226.852 104.993 226.852 107.838C226.852 110.682 229.162 112.996 232.002 112.996H239.811V114.234ZM243.163 107.213H253.693V108.457H243.163C243.469 111.008 245.641 112.989 248.269 112.989H256.078V114.234H248.269C244.748 114.234 241.883 111.364 241.883 107.838C241.883 104.312 244.748 101.436 248.269 101.436H256.078V102.68H248.269C245.641 102.674 243.469 104.662 243.163 107.213Z" fill="#5F5F5F"/>
</svg>
